<mxfile host="app.diagrams.net" agent="Mozilla/5.0 (X11; Linux x86_64) AppleWebKit/537.36 (KHTML, like Gecko) Chrome/131.0.0.0 Safari/537.36" version="26.0.3">
  <diagram name="Σελίδα-1" id="eIitHSgUbr_Ef1hGLhfr">
    <mxGraphModel dx="676" dy="356" grid="1" gridSize="10" guides="1" tooltips="1" connect="1" arrows="1" fold="1" page="1" pageScale="1" pageWidth="827" pageHeight="1169" math="1" shadow="0">
      <root>
        <mxCell id="0" />
        <mxCell id="1" parent="0" />
        <mxCell id="EfQFGKJvnnYAsufmfuI2-1" value="" style="pointerEvents=1;verticalLabelPosition=bottom;shadow=0;dashed=0;align=center;html=1;verticalAlign=top;shape=mxgraph.electrical.resistors.resistor_1;" parent="1" vertex="1">
          <mxGeometry x="360" y="280" width="100" height="20" as="geometry" />
        </mxCell>
        <mxCell id="EfQFGKJvnnYAsufmfuI2-2" value="" style="pointerEvents=1;verticalLabelPosition=bottom;shadow=0;dashed=0;align=center;html=1;verticalAlign=top;shape=mxgraph.electrical.capacitors.capacitor_1;rotation=90;" parent="1" vertex="1">
          <mxGeometry x="456" y="321.25" width="87.5" height="35" as="geometry" />
        </mxCell>
        <mxCell id="EfQFGKJvnnYAsufmfuI2-3" value="" style="endArrow=none;html=1;rounded=0;entryX=0;entryY=0.5;entryDx=0;entryDy=0;entryPerimeter=0;exitX=1;exitY=0.5;exitDx=0;exitDy=0;exitPerimeter=0;" parent="1" source="EfQFGKJvnnYAsufmfuI2-1" target="EfQFGKJvnnYAsufmfuI2-2" edge="1">
          <mxGeometry width="50" height="50" relative="1" as="geometry">
            <mxPoint x="420" y="380" as="sourcePoint" />
            <mxPoint x="470" y="330" as="targetPoint" />
            <Array as="points">
              <mxPoint x="500" y="290" />
            </Array>
          </mxGeometry>
        </mxCell>
        <mxCell id="EfQFGKJvnnYAsufmfuI2-7" value="$$R_1$$" style="text;html=1;align=center;verticalAlign=middle;whiteSpace=wrap;rounded=0;fontSize=14;" parent="1" vertex="1">
          <mxGeometry x="380" y="300" width="60" height="30" as="geometry" />
        </mxCell>
        <mxCell id="EfQFGKJvnnYAsufmfuI2-8" value="$$C_1$$" style="text;html=1;align=center;verticalAlign=middle;whiteSpace=wrap;rounded=0;fontSize=14;" parent="1" vertex="1">
          <mxGeometry x="440" y="323.75" width="60" height="30" as="geometry" />
        </mxCell>
        <mxCell id="EfQFGKJvnnYAsufmfuI2-12" value="" style="endArrow=none;html=1;rounded=0;" parent="1" edge="1">
          <mxGeometry width="50" height="50" relative="1" as="geometry">
            <mxPoint x="320" y="400" as="sourcePoint" />
            <mxPoint x="560" y="400" as="targetPoint" />
          </mxGeometry>
        </mxCell>
        <mxCell id="EfQFGKJvnnYAsufmfuI2-13" value="" style="endArrow=none;html=1;rounded=0;entryX=1;entryY=0.5;entryDx=0;entryDy=0;entryPerimeter=0;" parent="1" target="EfQFGKJvnnYAsufmfuI2-2" edge="1">
          <mxGeometry width="50" height="50" relative="1" as="geometry">
            <mxPoint x="500" y="400" as="sourcePoint" />
            <mxPoint x="470" y="330" as="targetPoint" />
          </mxGeometry>
        </mxCell>
        <mxCell id="EfQFGKJvnnYAsufmfuI2-14" value="" style="endArrow=none;html=1;rounded=0;" parent="1" edge="1">
          <mxGeometry width="50" height="50" relative="1" as="geometry">
            <mxPoint x="560" y="290" as="sourcePoint" />
            <mxPoint x="500" y="290" as="targetPoint" />
          </mxGeometry>
        </mxCell>
        <mxCell id="EfQFGKJvnnYAsufmfuI2-15" value="" style="endArrow=classic;html=1;rounded=0;entryX=0.007;entryY=1.097;entryDx=0;entryDy=0;entryPerimeter=0;" parent="1" edge="1">
          <mxGeometry width="50" height="50" relative="1" as="geometry">
            <mxPoint x="320" y="388.06" as="sourcePoint" />
            <mxPoint x="320.69999999999993" y="299.99999999999994" as="targetPoint" />
          </mxGeometry>
        </mxCell>
        <mxCell id="EfQFGKJvnnYAsufmfuI2-16" value="$$V_{in}$$" style="edgeLabel;html=1;align=center;verticalAlign=middle;resizable=0;points=[];fontSize=14;" parent="EfQFGKJvnnYAsufmfuI2-15" vertex="1" connectable="0">
          <mxGeometry x="-0.0901" y="-1" relative="1" as="geometry">
            <mxPoint x="19" y="4" as="offset" />
          </mxGeometry>
        </mxCell>
        <mxCell id="EfQFGKJvnnYAsufmfuI2-17" value="" style="endArrow=classic;html=1;rounded=0;entryX=0.007;entryY=1.097;entryDx=0;entryDy=0;entryPerimeter=0;" parent="1" edge="1">
          <mxGeometry width="50" height="50" relative="1" as="geometry">
            <mxPoint x="560" y="388" as="sourcePoint" />
            <mxPoint x="561" y="300" as="targetPoint" />
          </mxGeometry>
        </mxCell>
        <mxCell id="EfQFGKJvnnYAsufmfuI2-18" value="$$V_{out}$$" style="edgeLabel;html=1;align=center;verticalAlign=middle;resizable=0;points=[];fontSize=14;" parent="EfQFGKJvnnYAsufmfuI2-17" vertex="1" connectable="0">
          <mxGeometry x="-0.0901" y="-1" relative="1" as="geometry">
            <mxPoint x="19" y="6" as="offset" />
          </mxGeometry>
        </mxCell>
        <mxCell id="EfQFGKJvnnYAsufmfuI2-22" value="" style="endArrow=none;html=1;rounded=0;entryX=0;entryY=0.5;entryDx=0;entryDy=0;entryPerimeter=0;" parent="1" target="EfQFGKJvnnYAsufmfuI2-1" edge="1">
          <mxGeometry width="50" height="50" relative="1" as="geometry">
            <mxPoint x="320" y="290" as="sourcePoint" />
            <mxPoint x="420" y="340" as="targetPoint" />
          </mxGeometry>
        </mxCell>
        <mxCell id="EfQFGKJvnnYAsufmfuI2-23" value="" style="pointerEvents=1;verticalLabelPosition=bottom;shadow=0;dashed=0;align=center;html=1;verticalAlign=top;shape=mxgraph.electrical.resistors.resistor_1;" parent="1" vertex="1">
          <mxGeometry x="360" y="440" width="100" height="20" as="geometry" />
        </mxCell>
        <mxCell id="EfQFGKJvnnYAsufmfuI2-24" value="" style="pointerEvents=1;verticalLabelPosition=bottom;shadow=0;dashed=0;align=center;html=1;verticalAlign=top;shape=mxgraph.electrical.capacitors.capacitor_1;rotation=90;" parent="1" vertex="1">
          <mxGeometry x="456" y="481.25" width="87.5" height="35" as="geometry" />
        </mxCell>
        <mxCell id="EfQFGKJvnnYAsufmfuI2-25" value="" style="endArrow=none;html=1;rounded=0;entryX=0;entryY=0.5;entryDx=0;entryDy=0;entryPerimeter=0;exitX=1;exitY=0.5;exitDx=0;exitDy=0;exitPerimeter=0;" parent="1" source="EfQFGKJvnnYAsufmfuI2-23" target="EfQFGKJvnnYAsufmfuI2-24" edge="1">
          <mxGeometry width="50" height="50" relative="1" as="geometry">
            <mxPoint x="420" y="540" as="sourcePoint" />
            <mxPoint x="470" y="490" as="targetPoint" />
            <Array as="points">
              <mxPoint x="500" y="450" />
            </Array>
          </mxGeometry>
        </mxCell>
        <mxCell id="EfQFGKJvnnYAsufmfuI2-26" value="$$R_1$$" style="text;html=1;align=center;verticalAlign=middle;whiteSpace=wrap;rounded=0;fontSize=14;" parent="1" vertex="1">
          <mxGeometry x="380" y="460" width="60" height="30" as="geometry" />
        </mxCell>
        <mxCell id="EfQFGKJvnnYAsufmfuI2-27" value="$$C_1$$" style="text;html=1;align=center;verticalAlign=middle;whiteSpace=wrap;rounded=0;fontSize=14;" parent="1" vertex="1">
          <mxGeometry x="440" y="483.75" width="60" height="30" as="geometry" />
        </mxCell>
        <mxCell id="EfQFGKJvnnYAsufmfuI2-28" value="" style="endArrow=none;html=1;rounded=0;" parent="1" source="EfQFGKJvnnYAsufmfuI2-36" edge="1">
          <mxGeometry width="50" height="50" relative="1" as="geometry">
            <mxPoint x="320" y="560" as="sourcePoint" />
            <mxPoint x="560" y="560" as="targetPoint" />
          </mxGeometry>
        </mxCell>
        <mxCell id="EfQFGKJvnnYAsufmfuI2-29" value="" style="endArrow=none;html=1;rounded=0;entryX=1;entryY=0.5;entryDx=0;entryDy=0;entryPerimeter=0;" parent="1" target="EfQFGKJvnnYAsufmfuI2-24" edge="1">
          <mxGeometry width="50" height="50" relative="1" as="geometry">
            <mxPoint x="500" y="560" as="sourcePoint" />
            <mxPoint x="470" y="490" as="targetPoint" />
          </mxGeometry>
        </mxCell>
        <mxCell id="EfQFGKJvnnYAsufmfuI2-30" value="" style="endArrow=none;html=1;rounded=0;" parent="1" edge="1">
          <mxGeometry width="50" height="50" relative="1" as="geometry">
            <mxPoint x="560" y="450" as="sourcePoint" />
            <mxPoint x="500" y="450" as="targetPoint" />
          </mxGeometry>
        </mxCell>
        <mxCell id="EfQFGKJvnnYAsufmfuI2-31" value="" style="endArrow=classic;html=1;rounded=0;entryX=0.007;entryY=1.097;entryDx=0;entryDy=0;entryPerimeter=0;" parent="1" edge="1">
          <mxGeometry width="50" height="50" relative="1" as="geometry">
            <mxPoint x="320" y="548.06" as="sourcePoint" />
            <mxPoint x="320.69999999999993" y="459.99999999999994" as="targetPoint" />
          </mxGeometry>
        </mxCell>
        <mxCell id="EfQFGKJvnnYAsufmfuI2-32" value="$$V_{in}$$" style="edgeLabel;html=1;align=center;verticalAlign=middle;resizable=0;points=[];fontSize=14;" parent="EfQFGKJvnnYAsufmfuI2-31" vertex="1" connectable="0">
          <mxGeometry x="-0.0901" y="-1" relative="1" as="geometry">
            <mxPoint x="19" y="4" as="offset" />
          </mxGeometry>
        </mxCell>
        <mxCell id="EfQFGKJvnnYAsufmfuI2-33" value="" style="endArrow=classic;html=1;rounded=0;entryX=0.007;entryY=1.097;entryDx=0;entryDy=0;entryPerimeter=0;" parent="1" edge="1">
          <mxGeometry width="50" height="50" relative="1" as="geometry">
            <mxPoint x="560" y="548" as="sourcePoint" />
            <mxPoint x="561" y="460" as="targetPoint" />
          </mxGeometry>
        </mxCell>
        <mxCell id="EfQFGKJvnnYAsufmfuI2-34" value="$$V_{out}$$" style="edgeLabel;html=1;align=center;verticalAlign=middle;resizable=0;points=[];fontSize=14;" parent="EfQFGKJvnnYAsufmfuI2-33" vertex="1" connectable="0">
          <mxGeometry x="-0.0901" y="-1" relative="1" as="geometry">
            <mxPoint x="19" y="6" as="offset" />
          </mxGeometry>
        </mxCell>
        <mxCell id="EfQFGKJvnnYAsufmfuI2-35" value="" style="endArrow=none;html=1;rounded=0;entryX=0;entryY=0.5;entryDx=0;entryDy=0;entryPerimeter=0;" parent="1" target="EfQFGKJvnnYAsufmfuI2-23" edge="1">
          <mxGeometry width="50" height="50" relative="1" as="geometry">
            <mxPoint x="320" y="450" as="sourcePoint" />
            <mxPoint x="420" y="500" as="targetPoint" />
          </mxGeometry>
        </mxCell>
        <mxCell id="EfQFGKJvnnYAsufmfuI2-37" value="" style="endArrow=none;html=1;rounded=0;" parent="1" target="EfQFGKJvnnYAsufmfuI2-36" edge="1">
          <mxGeometry width="50" height="50" relative="1" as="geometry">
            <mxPoint x="320" y="560" as="sourcePoint" />
            <mxPoint x="560" y="560" as="targetPoint" />
          </mxGeometry>
        </mxCell>
        <mxCell id="EfQFGKJvnnYAsufmfuI2-36" value="" style="pointerEvents=1;verticalLabelPosition=bottom;shadow=0;dashed=0;align=center;html=1;verticalAlign=top;shape=mxgraph.electrical.resistors.resistor_1;" parent="1" vertex="1">
          <mxGeometry x="364" y="550" width="100" height="20" as="geometry" />
        </mxCell>
        <mxCell id="EfQFGKJvnnYAsufmfuI2-38" value="$$R_1$$" style="text;html=1;align=center;verticalAlign=middle;whiteSpace=wrap;rounded=0;fontSize=14;" parent="1" vertex="1">
          <mxGeometry x="384" y="520" width="60" height="30" as="geometry" />
        </mxCell>
        <mxCell id="tFKcBgRpLSoyx-89n10t-1" value="" style="pointerEvents=1;verticalLabelPosition=bottom;shadow=0;dashed=0;align=center;html=1;verticalAlign=top;shape=mxgraph.electrical.inductors.inductor_3;" vertex="1" parent="1">
          <mxGeometry x="320" y="150" width="100" height="8" as="geometry" />
        </mxCell>
        <mxCell id="tFKcBgRpLSoyx-89n10t-4" value="" style="pointerEvents=1;verticalLabelPosition=bottom;shadow=0;dashed=0;align=center;html=1;verticalAlign=top;shape=mxgraph.electrical.resistors.resistor_1;" vertex="1" parent="1">
          <mxGeometry x="434" y="148" width="100" height="20" as="geometry" />
        </mxCell>
        <mxCell id="tFKcBgRpLSoyx-89n10t-5" value="" style="pointerEvents=1;verticalLabelPosition=bottom;shadow=0;dashed=0;align=center;html=1;verticalAlign=top;shape=mxgraph.electrical.capacitors.capacitor_1;rotation=90;" vertex="1" parent="1">
          <mxGeometry x="513" y="189.25" width="87.5" height="35" as="geometry" />
        </mxCell>
        <mxCell id="tFKcBgRpLSoyx-89n10t-6" value="" style="endArrow=none;html=1;rounded=0;entryX=1;entryY=1;entryDx=0;entryDy=0;entryPerimeter=0;exitX=0;exitY=0.5;exitDx=0;exitDy=0;exitPerimeter=0;" edge="1" parent="1" source="tFKcBgRpLSoyx-89n10t-4" target="tFKcBgRpLSoyx-89n10t-1">
          <mxGeometry width="50" height="50" relative="1" as="geometry">
            <mxPoint x="270" y="240" as="sourcePoint" />
            <mxPoint x="320" y="190" as="targetPoint" />
          </mxGeometry>
        </mxCell>
        <mxCell id="tFKcBgRpLSoyx-89n10t-7" style="edgeStyle=orthogonalEdgeStyle;rounded=0;orthogonalLoop=1;jettySize=auto;html=1;exitX=1;exitY=0.5;exitDx=0;exitDy=0;exitPerimeter=0;entryX=0;entryY=0.5;entryDx=0;entryDy=0;entryPerimeter=0;endArrow=none;endFill=0;" edge="1" parent="1" source="tFKcBgRpLSoyx-89n10t-4" target="tFKcBgRpLSoyx-89n10t-5">
          <mxGeometry relative="1" as="geometry" />
        </mxCell>
        <mxCell id="tFKcBgRpLSoyx-89n10t-11" value="" style="endArrow=none;html=1;rounded=0;exitX=1;exitY=0.5;exitDx=0;exitDy=0;exitPerimeter=0;" edge="1" parent="1">
          <mxGeometry width="50" height="50" relative="1" as="geometry">
            <mxPoint x="556.7500000000001" y="250.5" as="sourcePoint" />
            <mxPoint x="320" y="270" as="targetPoint" />
            <Array as="points">
              <mxPoint x="557" y="270" />
            </Array>
          </mxGeometry>
        </mxCell>
        <mxCell id="tFKcBgRpLSoyx-89n10t-12" value="" style="endArrow=classic;html=1;rounded=0;entryX=0.007;entryY=1.097;entryDx=0;entryDy=0;entryPerimeter=0;" edge="1" parent="1">
          <mxGeometry width="50" height="50" relative="1" as="geometry">
            <mxPoint x="590" y="256" as="sourcePoint" />
            <mxPoint x="591" y="168" as="targetPoint" />
          </mxGeometry>
        </mxCell>
        <mxCell id="tFKcBgRpLSoyx-89n10t-13" value="$$V_{out}$$" style="edgeLabel;html=1;align=center;verticalAlign=middle;resizable=0;points=[];fontSize=14;" vertex="1" connectable="0" parent="tFKcBgRpLSoyx-89n10t-12">
          <mxGeometry x="-0.0901" y="-1" relative="1" as="geometry">
            <mxPoint x="19" y="6" as="offset" />
          </mxGeometry>
        </mxCell>
        <mxCell id="tFKcBgRpLSoyx-89n10t-19" value="" style="endArrow=classic;html=1;rounded=0;entryX=0.007;entryY=1.097;entryDx=0;entryDy=0;entryPerimeter=0;" edge="1" parent="1">
          <mxGeometry width="50" height="50" relative="1" as="geometry">
            <mxPoint x="320" y="256.06" as="sourcePoint" />
            <mxPoint x="320.69999999999993" y="167.99999999999994" as="targetPoint" />
          </mxGeometry>
        </mxCell>
        <mxCell id="tFKcBgRpLSoyx-89n10t-20" value="$$V_{in}$$" style="edgeLabel;html=1;align=center;verticalAlign=middle;resizable=0;points=[];fontSize=14;" vertex="1" connectable="0" parent="tFKcBgRpLSoyx-89n10t-19">
          <mxGeometry x="-0.0901" y="-1" relative="1" as="geometry">
            <mxPoint x="19" y="4" as="offset" />
          </mxGeometry>
        </mxCell>
        <mxCell id="tFKcBgRpLSoyx-89n10t-21" value="$$C_1$$" style="text;html=1;align=center;verticalAlign=middle;whiteSpace=wrap;rounded=0;fontSize=14;" vertex="1" parent="1">
          <mxGeometry x="500" y="191.75" width="60" height="30" as="geometry" />
        </mxCell>
        <mxCell id="tFKcBgRpLSoyx-89n10t-22" value="$$R_1$$" style="text;html=1;align=center;verticalAlign=middle;whiteSpace=wrap;rounded=0;fontSize=14;" vertex="1" parent="1">
          <mxGeometry x="454" y="161.75" width="60" height="30" as="geometry" />
        </mxCell>
        <mxCell id="tFKcBgRpLSoyx-89n10t-23" value="$$L_1$$" style="text;html=1;align=center;verticalAlign=middle;whiteSpace=wrap;rounded=0;fontSize=14;" vertex="1" parent="1">
          <mxGeometry x="340" y="161.75" width="60" height="30" as="geometry" />
        </mxCell>
      </root>
    </mxGraphModel>
  </diagram>
</mxfile>
